<svg version="1.1" id="Layer_1" xmlns="http://www.w3.org/2000/svg" xmlns:xlink="http://www.w3.org/1999/xlink" x="0px" y="0px"
	 width="500px" height="130px" viewBox="0 0 500 130" enable-background="new 0 0 500 130" xml:space="preserve">
<g id="Layer_1_1_">
	<circle fill="#F3F8FA" cx="162" cy="62" r="10"/>
	<path fill="#7B9099" d="M40.8,20.6l-3.4-5.2l-3.3,5.2C33.6,21,33,20.6,33,20V6l1-1h7l1,1v14C42,20.6,41.4,21,40.8,20.6z"/>
	<path fill="#CED9DD" d="M40.8,45.6l-3.4-5.2l-3.3,5.2C33.6,46,33,45.6,33,45V31l1-1h7l1,1v14C42,45.6,41.4,46,40.8,45.6z"/>
	<path fill="#7B9099" d="M22.3,7.3h-3c-0.3,0-1,0.7-1,1v2.7c0,0-0.1,0-0.1,0l-2,2c-0.1,0.1-0.2,0.2-0.3,0.3h-2.3c0,0,0,0,0,0L13.3,8
		c-0.1-0.1-0.2-0.2-0.3-0.3V5c0-0.3-0.7-1-1-1H9C8.7,4,8,4.7,8,5v2.7c0,0-0.1,0-0.1,0l-4,3c-0.1,0.1-0.2,0.2-0.3,0.3H1
		c-0.3,0-1,0.7-1,1v3c0,0.3,0.7,1,1,1h3c0.3,0,1-0.7,1-1v-2.6c0,0,0.1,0,0.1-0.1l4-3C9.2,9.2,9.3,9.1,9.4,9h2.3c0,0,0,0,0,0l0.3,5.3
		c0.1,0.1,0.2,0.3,0.3,0.3v2.6c0,0.3,0.7,1,1,1h3c0.3,0,1-0.7,1-1v-2.6c0,0,0.1,0,0.1-0.1l2-2c0.1-0.1,0.2-0.2,0.3-0.3h2.6
		c0.3,0,1-0.7,1-1v-3C23.3,8,22.6,7.3,22.3,7.3z M1,15v-3h3c0,0-0.3-0.9-0.3-0.9C3.8,11.2,3.9,11.9,4,12v3H1z M12,5v2.6c0,0,0,0,0,0
		c-0.1,0.1-0.2,0.2-0.3,0.3H9.3c0,0,0-0.1,0-0.1C9.2,7.8,9.1,7.7,9,7.6V5H12z M13.3,17.3v-2.6c0,0,0,0,0,0c0.1-0.1,0.2-0.2,0.3-0.3
		H16c0,0,0,0.1,0,0.1c0.1,0.1,0.2,0.2,0.3,0.2v2.7H13.3z M22.3,11.3h-2.7c0,0,0-0.1,0-0.1c-0.1-0.1-0.2-0.2-0.3-0.3V8.3h3L22.3,11.3
		L22.3,11.3z"/>
	<path fill="#CED9DD" d="M22.3,33.3h-3c-0.3,0-1,0.7-1,1v2.7c0,0-0.1,0-0.1,0l-2,2c-0.1,0.1-0.2,0.2-0.3,0.3h-2.3c0,0,0,0,0,0
		L13.3,34c-0.1-0.1-0.2-0.2-0.3-0.3V31c0-0.3-0.7-1-1-1H9c-0.3,0-1,0.7-1,1v2.7c0,0-0.1,0-0.1,0l-4,3c-0.1,0.1-0.2,0.2-0.3,0.3H1
		c-0.3,0-1,0.7-1,1v3c0,0.3,0.7,1,1,1h3c0.3,0,1-0.7,1-1v-2.6c0,0,0.1,0,0.1-0.1l4-3c0.1-0.1,0.2-0.2,0.3-0.3h2.3c0,0,0,0,0,0
		l0.3,5.3c0.1,0.1,0.2,0.3,0.3,0.3v2.6c0,0.3,0.7,1,1,1h3c0.3,0,1-0.7,1-1v-2.6c0,0,0.1,0,0.1-0.1l2-2c0.1-0.1,0.2-0.2,0.3-0.3h2.6
		c0.3,0,1-0.7,1-1v-3C23.3,34,22.6,33.3,22.3,33.3z M1,41v-3h3c0,0-0.3-0.9-0.3-0.9C3.8,37.2,3.9,37.9,4,38v3H1z M12,31v2.6
		c0,0,0,0,0,0c-0.1,0.1-0.2,0.2-0.3,0.3H9.3c0,0,0-0.1,0-0.1c-0.1-0.1-0.2-0.2-0.3-0.3V31H12z M13.3,43.3v-2.6c0,0,0,0,0,0
		c0.1-0.1,0.2-0.2,0.3-0.3H16c0,0,0,0.1,0,0.1c0.1,0.1,0.2,0.2,0.3,0.2v2.7H13.3z M22.3,37.3h-2.7c0,0,0-0.1,0-0.1
		c-0.1-0.1-0.2-0.2-0.3-0.3v-2.6h3L22.3,37.3L22.3,37.3z"/>
	<path fill="#7B9099" d="M70,18H56c-0.4,0-1-0.6-1-1v-6h16v6C71,17.4,70.4,18,70,18z M55,8c0-0.4,0.6-2,1-2h3l2,2h9c0.4,0,1,1.6,1,2
		H55V8z"/>
	<path fill="#CED9DD" d="M70,43H56c-0.4,0-1-0.6-1-1v-6h16v6C71,42.4,70.4,43,70,43z M55,33c0-0.4,0.6-2,1-2h3l2,2h9
		c0.4,0,1,1.6,1,2H55V33z"/>
	<path fill="#7B9099" d="M95,19H81c-0.4,0-1-0.8-1-1.2V6c0-0.4,0.6-1,1-1s1,0.6,1,1v11h13c0.5,0,1,0.6,1,1S95.4,19,95,19z M93,16h-1
		c-0.4,0-0.8-0.2-1-1v-5c0.2-0.1,0.6-1,1-1h1c0.4,0,1,0.6,1,1v5C94,15,93.4,16,93,16z M89,16h-1c-0.3,0.2-1-0.6-1-1V7
		c0-0.4,0.6-1,1-1h1c0.4,0,1,0.8,1,1.2V15C90,15.4,89.5,16.2,89,16z M85,16h-1c-0.4,0-1-0.6-1-1v-2c0-0.4,0.6-1,1-1h1
		c0.4,0,1,0.6,1,1v2C86,15.4,85.4,16,85,16z"/>
	<path fill="#CED9DD" d="M95,44H81c-0.4,0-1-0.8-1-1.2V31c0-0.4,0.6-1,1-1s1,0.6,1,1v11h13c0.5,0,1,0.6,1,1S95.4,44,95,44z M93,41
		h-1c-0.4,0-0.8-0.2-1-1v-5c0.2-0.1,0.6-1,1-1h1c0.4,0,1,0.6,1,1v5C94,40,93.4,41,93,41z M89,41h-1c-0.3,0.2-1-0.6-1-1v-8
		c0-0.4,0.6-1,1-1h1c0.4,0,1,0.8,1,1.2V40C90,40.4,89.5,41.2,89,41z M85,41h-1c-0.4,0-1-0.6-1-1v-2c0-0.4,0.6-1,1-1h1
		c0.4,0,1,0.6,1,1v2C86,40.4,85.4,41,85,41z"/>
	<g>
		<g>
			<path fill="#7B9099" d="M112,6c-4.4,0-8,3.6-8,8s3.6,8,8,8s8-3.6,8-8C120,9.6,116.4,6,112,6z M116.8,18.4
				c-0.9-0.5-0.6-0.1-1.8-0.6c-1.3-0.5-1.6-0.7-1.6-0.7l0-1.2c0,0,0.5-0.4,0.6-1.5c0.3,0.1,0.4-0.3,0.4-0.6c0-0.3,0.2-1.1-0.2-1
				c0.1-0.5,0.1-1,0.1-1.3c-0.1-0.9-0.7-1.9-2.4-2c-1.4,0.1-2.3,1-2.4,2c0,0.3,0,0.8,0.1,1.3c-0.4-0.1-0.2,0.8-0.2,1
				c0,0.3,0.1,0.7,0.4,0.6c0.1,1.1,0.6,1.5,0.6,1.5l0,1.2c0,0-0.3,0.2-1.6,0.7c-1.2,0.5-0.9,0.1-1.8,0.6c-1-1.2-1.7-2.7-1.7-4.4
				c0-3.6,2.9-6.5,6.5-6.5s6.5,2.9,6.5,6.5C118.5,15.7,117.9,17.2,116.8,18.4z M125,2.7l-2.3-0.5L121.5,0l-1.2,2.2L118,2.7l1.6,1.8
				L119.3,7l2.2-1.1l2.2,1.1l-0.3-2.5L125,2.7z"/>
		</g>
	</g>
	<g>
		<g>
			<path fill="#7B9099" d="M337,5c-4.4,0-8,3.6-8,8s3.6,8,8,8s8-3.6,8-8S341.4,5,337,5z M341.8,17.4c-0.9-0.5-0.6-0.1-1.8-0.6
				c-1.3-0.5-1.6-0.7-1.6-0.7l0-1.2c0,0,0.5-0.4,0.6-1.5c0.3,0.1,0.4-0.3,0.4-0.6c0-0.3,0.2-1.1-0.2-1c0.1-0.5,0.1-1,0.1-1.3
				c-0.1-0.9-0.7-1.9-2.4-2c-1.4,0.1-2.3,1-2.4,2c0,0.3,0,0.8,0.1,1.3c-0.4-0.1-0.2,0.8-0.2,1c0,0.3,0.1,0.7,0.4,0.6
				c0.1,1.1,0.6,1.5,0.6,1.5l0,1.2c0,0-0.3,0.2-1.6,0.7c-1.2,0.5-0.9,0.1-1.8,0.6c-1-1.2-1.7-2.7-1.7-4.4c0-3.6,2.9-6.5,6.5-6.5
				s6.5,2.9,6.5,6.5C343.5,14.7,342.9,16.2,341.8,17.4z"/>
		</g>
	</g>
	<g>
		<g>
			<path fill="#CED9DD" d="M112,31c-4.4,0-8,3.6-8,8s3.6,8,8,8s8-3.6,8-8S116.4,31,112,31z M116.8,43.4c-0.9-0.5-0.6-0.1-1.8-0.6
				c-1.3-0.5-1.6-0.7-1.6-0.7l0-1.2c0,0,0.5-0.4,0.6-1.5c0.3,0.1,0.4-0.3,0.4-0.6c0-0.3,0.2-1.1-0.2-1c0.1-0.5,0.1-1,0.1-1.3
				c-0.1-0.9-0.7-1.9-2.4-2c-1.4,0.1-2.3,1-2.4,2c0,0.3,0,0.8,0.1,1.3c-0.4-0.1-0.2,0.8-0.2,1c0,0.3,0.1,0.7,0.4,0.6
				c0.1,1.1,0.6,1.5,0.6,1.5l0,1.2c0,0-0.3,0.2-1.6,0.7c-1.2,0.5-0.9,0.1-1.8,0.6c-1-1.2-1.7-2.7-1.7-4.4c0-3.6,2.9-6.5,6.5-6.5
				s6.5,2.9,6.5,6.5C118.5,40.7,117.9,42.2,116.8,43.4z M125,27.7l-2.3-0.5l-1.2-2.2l-1.2,2.2l-2.3,0.5l1.6,1.8l-0.3,2.5l2.2-1.1
				l2.2,1.1l-0.3-2.5L125,27.7z"/>
		</g>
	</g>
	<path fill="#7B9099" d="M144.6,17.8c0.2,0.2,0.4,0.6,0.4,0.9c0,0.7-0.6,1.3-1.3,1.3c-0.4,0-0.7-0.1-0.9-0.4l0,0l-3.8-3.8
		c-0.8,0.5-1.7,0.7-2.7,0.7c-2.9,0-5.2-2.4-5.2-5.2s2.4-5.2,5.3-5.2s5.2,2.4,5.2,5.2c0,1-0.3,1.9-0.7,2.7L144.6,17.8L144.6,17.8z
		 M136.2,7.3c-2.2,0-3.9,1.8-3.9,3.9s1.8,3.9,3.9,3.9c2.2,0,3.9-1.8,3.9-3.9S138.4,7.3,136.2,7.3z"/>
	<path fill="#CED9DD" d="M144.6,42.8c0.2,0.2,0.4,0.6,0.4,0.9c0,0.7-0.6,1.3-1.3,1.3c-0.4,0-0.7-0.1-0.9-0.4l0,0l-3.8-3.8
		c-0.8,0.5-1.7,0.7-2.7,0.7c-2.9,0-5.2-2.4-5.2-5.2c0-2.9,2.4-5.2,5.2-5.2s5.2,2.3,5.2,5.2c0,1-0.3,1.9-0.7,2.7L144.6,42.8
		L144.6,42.8z M136.2,32.3c-2.2,0-3.9,1.8-3.9,3.9s1.8,3.9,3.9,3.9c2.2,0,3.9-1.8,3.9-3.9S138.4,32.3,136.2,32.3z"/>
	<g>
		<g>
			<path fill="#7B9099" d="M171,6h-17c-0.3,0-1,0.3-1,1v12c0-0.2,0.7,1,1,1h17c0.3,0,1-0.7,1-1V7C172,6.7,171.3,6,171,6z M171,19
				h-17v-9h17V19z M171,9h-17V7h17V9z M157,18h3l1-1l-2-3c0,0,1.1-0.5,1.1-0.9c0-0.9-0.8-1.7-1.7-1.7s-1.7,0.8-1.7,1.7
				c0,0.4,1.2,0.9,1.2,0.9l-2,3L157,18z M170,12h-8v1h8V12z M170,14h-8v1h8V14z M170,16h-8v1h8V16z"/>
		</g>
	</g>
	<g>
		<g>
			<path fill="#CED9DD" d="M171,31h-17c-0.3,0-1,0.3-1,1v12c0-0.2,0.7,1,1,1h17c0.3,0,1-0.7,1-1V32C172,31.7,171.3,31,171,31z
				 M171,44h-17v-9h17V44z M171,34h-17v-2h17V34z M157,43h3l1-1l-2-3c0,0,1.1-0.5,1.1-0.9c0-0.9-0.8-1.7-1.7-1.7s-1.7,0.8-1.7,1.7
				c0,0.4,1.2,0.9,1.2,0.9l-2,3L157,43z M170,37h-8v1h8V37z M170,39h-8v1h8V39z M170,41h-8v1h8V41z"/>
		</g>
	</g>
	<g>
		<g>
			<path fill="#7B9099" d="M194,1.1c-0.2-0.2-0.8-0.2-1,0l-2.5,1.7l-1.6-1.6c-0.2-0.2-0.5-0.2-0.7,0l-1.6,1.6l-1.6-1.6
				c-0.2-0.2-0.5-0.2-0.7,0l-1.6,1.6l-1.6-1.6c-0.1-0.1-0.4-0.2-0.5-0.1c-0.2,0.1-0.3,0.3-0.3,0.5v20.9c0,0.2,0.1,0.4,0.3,0.5
				c0.2,0.1,0.4,0,0.5-0.1l1.7-1.6l1.6,1.6c0.2,0.2,0.5,0.2,0.7,0l1.7-1.6l1.6,1.6c0.1,0.1,0.2,0.1,0.4,0.1c0.1,0,0.3-0.1,0.4-0.1
				l1.6-1.6l2.5,1.9l1-0.6V1.6c0,0,0,0,0-0.1L194,1.1z M193,22.1l-2.1-2c-0.2-0.2-0.5-0.2-0.7,0l-1.6,1.6l-1.6-1.6
				c-0.2-0.2-0.5-0.2-0.7,0l-1.7,1.6l-1.6-1.6c-0.1-0.1-0.2-0.1-0.4-0.1c-0.1,0-0.3,0-0.4,0.1l-1.2,1.1V2.8l1.1,1.1
				c0.2,0.2,0.5,0.2,0.7,0l1.6-1.6l1.6,1.6c0.2,0.2,0.5,0.2,0.7,0l1.6-1.6l1.6,1.6c0.2,0.2,0.5,0.2,0.7,0l2.1-1.8V22.1z M190,8h1V7
				h-1V8z M183,8h6V7h-6V8z M190,11h1v-1h-1V11z M183,11h6v-1h-6V11z M190,14h1v-1h-1V14z M183,14h5v-1h-5V14z M190,17h1v-1h-1V17z
				 M183,17h3v-1h-3V17z"/>
		</g>
	</g>
	<g>
		<g>
			<path fill="#CED9DD" d="M194,26.1c-0.2-0.2-0.8-0.2-1,0l-2.5,1.7l-1.6-1.6c-0.2-0.2-0.5-0.2-0.7,0l-1.6,1.6l-1.6-1.6
				c-0.2-0.2-0.5-0.2-0.7,0l-1.6,1.6l-1.6-1.6c-0.1-0.1-0.4-0.2-0.5-0.1c-0.2,0.1-0.3,0.3-0.3,0.5v20.9c0,0.2,0.1,0.4,0.3,0.5
				c0.2,0.1,0.4,0,0.5-0.1l1.7-1.6l1.6,1.6c0.2,0.2,0.5,0.2,0.7,0l1.7-1.6l1.6,1.6c0.1,0.1,0.2,0.1,0.4,0.1c0.1,0,0.3-0.1,0.4-0.1
				l1.6-1.6l2.5,1.9l1-0.6V26.6c0,0,0,0,0-0.1L194,26.1z M193,47.1l-2.1-2c-0.2-0.2-0.5-0.2-0.7,0l-1.6,1.6l-1.6-1.6
				c-0.2-0.2-0.5-0.2-0.7,0l-1.7,1.6l-1.6-1.6c-0.1-0.1-0.2-0.1-0.4-0.1c-0.1,0-0.3,0-0.4,0.1l-1.2,1.2V27.8l1.1,1.1
				c0.2,0.2,0.5,0.2,0.7,0l1.6-1.6l1.6,1.6c0.2,0.2,0.5,0.2,0.7,0l1.6-1.6l1.6,1.6c0.2,0.2,0.5,0.2,0.7,0l2.1-1.8V47.1z M190,33h1
				v-1h-1V33z M183,33h6v-1h-6V33z M190,36h1v-1h-1V36z M183,36h6v-1h-6V36z M190,39h1v-1h-1V39z M183,39h5v-1h-5V39z M190,42h1v-1
				h-1V42z M183,42h3v-1h-3V42z"/>
		</g>
	</g>
	<path fill="#7B9099" d="M217,17h-9c-0.4,0-1-0.4-1-0.8c0-0.4,0.3-0.7,0.7-0.7c0.4,0,0.7-0.3,0.7-0.7V10c0-1.8,1.5-3.3,3.3-3.3
		c0-0.4,0.3-0.7,0.7-0.7c0.4,0,0.7,0.3,0.7,0.7c1.8,0,3.3,1.5,3.3,3.3v4.7c0,0.4,0.3,0.7,0.7,0.7s0.7,0.3,0.7,0.7
		C218,16.6,217.4,17,217,17z M212.5,19c-0.8,0-1.5-0.2-1.5-1h3C214,18.8,213.3,19,212.5,19z"/>
	<path fill="#7B9099" d="M241.3,12.4l5.5-5.1c0.2,0.1,0.3,0.4,0.3,0.6v10.4c0,0.2-0.1,0.4-0.2,0.6L241.3,12.4z M229.3,7.2
		c0.1-0.1,0.3-0.2,0.6-0.2h16.3c0.2,0,0.4,0.1,0.6,0.2l-8.7,6.6L229.3,7.2z M229.2,18.7c-0.1-0.1-0.2-0.3-0.2-0.6V7.8
		c0-0.2,0.1-0.4,0.3-0.6l5.5,5.1L229.2,18.7z M238,15.5l2.3-2.1l6.4,5.5c-0.2,0.1-0.4,0.2-0.6,0.2h-16.3c-0.2,0-0.4-0.1-0.6-0.2
		l6.4-5.5L238,15.5z"/>
	<path fill="#CED9DD" d="M217,42h-9c-0.4,0-1-0.4-1-0.8c0-0.4,0.3-0.7,0.7-0.7c0.4,0,0.7-0.3,0.7-0.7V35c0-1.8,1.5-3.3,3.3-3.3
		c0-0.4,0.3-0.7,0.7-0.7c0.4,0,0.7,0.3,0.7,0.7c1.8,0,3.3,1.5,3.3,3.3v4.7c0,0.4,0.3,0.7,0.7,0.7s0.7,0.3,0.7,0.7
		C218,41.6,217.4,42,217,42z M212.5,44c-0.8,0-1.5-0.2-1.5-1h3C214,43.8,213.3,44,212.5,44z"/>
	<path fill="#CED9DD" d="M241.3,37.4l5.5-5.1c0.2,0.1,0.3,0.4,0.3,0.6v10.4c0,0.2-0.1,0.4-0.2,0.6L241.3,37.4z M229.3,32.2
		c0.1-0.1,0.3-0.2,0.6-0.2h16.3c0.2,0,0.4,0.1,0.6,0.2l-8.7,6.6L229.3,32.2z M229.2,43.7c-0.1-0.1-0.2-0.3-0.2-0.6V32.8
		c0-0.2,0.1-0.4,0.3-0.6l5.5,5.1L229.2,43.7z M238,40.5l2.3-2.1l6.4,5.5c-0.2,0.1-0.4,0.2-0.6,0.2h-16.3c-0.2,0-0.4-0.1-0.6-0.2
		l6.4-5.5L238,40.5z"/>
	<g>
		<g>
			<polygon fill="#CED9DD" points="268.2,35 263,39.9 257.8,35 257,35.7 263,41 269,35.7 			"/>
		</g>
	</g>
	<g>
		<g>
			<polygon fill="#7B9099" points="268.2,10 263,14.9 257.8,10 257,10.7 263,16 269,10.7 			"/>
		</g>
	</g>
	<g>
		<g>
			<path fill="#7B9099" d="M278,6v2h20V6H278z M278,14h20v-2h-20V14z M278,20h20v-2h-20V20z"/>
		</g>
	</g>
	<g>
		<g>
			<path fill="#188AE2" d="M278,31v2h20v-2H278z M278,39h20v-2h-20V39z M278,45h20v-2h-20V45z"/>
		</g>
	</g>
	<g opacity="0.5">
		<g>
			<path fill="#E3EBEE" d="M244.9,53h-15.8c-0.6,0-1.1,0.5-1.1,1.1v15.8c0,0.6,0.5,1.1,1.1,1.1h15.8c0.6,0,1.1-0.5,1.1-1.1V54.1
				C246,53.5,245.5,53,244.9,53z M245,69c0,0.3-0.7,1-1,1h-14c-0.3,0-1-0.7-1-1V59h16V69z M245,58h-16v-3c0.1-0.6,0.9-0.8,1-1
				l14.1,0c0.5,0.2,0.9,0.7,0.9,1V58z M236.5,55h-3c-0.3,0-0.5,0.1-0.5,0.4s0.3,0.6,0.6,0.6h3.4c0.3,0,0.6-0.3,0.6-0.6
				C237.5,55.1,236.8,55,236.5,55z M231.4,55c-0.3,0-0.6,0.3-0.6,0.6c0,0.3,0.3,0.6,0.6,0.6c0.3,0,0.6-0.3,0.6-0.6
				S231.7,55,231.4,55z M238,67h4c0.3,0,0.6-0.2,1-0.9V62c-0.4-0.6-0.7-1-1-1h-4c-0.3,0-1,0.7-1,1v4C237,66.3,237.7,67,238,67z
				 M238,62h4v4h-4V62z M231.6,62.1h3.4c0.3,0,0.6-0.3,0.6-0.6s-0.3-0.6-0.6-0.6h-3.4c-0.3,0-0.6,0.3-0.6,0.6S231.3,62.1,231.6,62.1
				z M231.6,64.1h3.4c0.3,0,0.6-0.3,0.6-0.6s-0.3-0.6-0.6-0.6h-3.4c-0.3,0-0.6,0.3-0.6,0.6S231.3,64.1,231.6,64.1z M231.6,66.1h3.4
				c0.3,0,0.6-0.3,0.6-0.6s-0.3-0.6-0.6-0.6h-3.4c-0.3,0-0.6,0.3-0.6,0.6S231.3,66.1,231.6,66.1z"/>
		</g>
	</g>
	<path opacity="0.5" fill="#E3EBEE" enable-background="new    " d="M269,58h-3v-2c0-0.5-0.2-1-0.7-1h-5.6c-0.5,0-0.7,0.5-0.7,1v2
		h-3c-0.5,0-1,0.2-1,0.8v10.3c0,0.5,0.4,0.9,0.9,0.9h13.1c0.5,0,0.9-0.4,0.9-0.9V58.8C270,58.2,269.5,58,269,58z M260,57
		c0-1,0.7-1,1-1h3c0.3,0,1,0.7,1,1v1h-5V57z M263,65h-1v-2h1V65z M269,64h-5v-1c-0.1-0.2-0.7-1-1-1h-1c-0.3,0-0.9,0.8-1,1v1h-5v-4.1
		c0-0.9,0-0.9,0-0.9c1,0,13,0,13,0s0,1.1,0,1V64z"/>
	<g opacity="0.5">
		<g>
			<path fill="#E3EBEE" d="M284.8,55.5c-1.4,0-2.6,1.2-2.6,2.6v1.3c0,1.4,1.2,2.6,2.6,2.6c1.4,0,2.6-1.2,2.6-2.6v-1.3
				C287.5,56.7,286.3,55.5,284.8,55.5z M286.1,59.4c0,0.7-0.6,1.3-1.3,1.3c-0.7,0-1.3-0.6-1.3-1.3v-1.3c0-0.7,0.6-1.3,1.3-1.3
				c0.7,0,1.3,0.6,1.3,1.3V59.4z M296.5,69.1l-4.8-4.8c0.8-1.2,1.3-2.7,1.3-4.3c0-4.4-3.6-8-8-8s-8,3.6-8,8s3.6,8,8,8
				c1.6,0,3.1-0.5,4.3-1.3l4.8,4.8c0.7,0.7,1.8,0.7,2.4,0C297.2,70.8,297.2,69.7,296.5,69.1z M285,66.8c-1.5,0-2.9-0.5-4.1-1.3
				c0.3-0.4,1.5-1.5,3.9-1.5c2.8,0,4,1.6,4,1.7c0,0,0,0,0,0C287.8,66.4,286.4,66.8,285,66.8z M284.8,62.7c-2.9,0-4.4,1.4-4.9,2
				c-1.1-1.2-1.8-2.8-1.8-4.6c0-3.8,3.1-6.8,6.8-6.8s6.8,3.1,6.8,6.8c0,1.9-0.8,3.6-2,4.8C289.5,64.4,288,62.7,284.8,62.7z"/>
		</g>
	</g>
	<path fill="#E32D2F" d="M12,72C6.5,72,2,67.5,2,62c0-5.5,4.5-10,10-10c5.5,0,10,4.5,10,10C22,67.5,17.5,72,12,72L12,72z M12,53.9
		c-4.5,0-8.1,3.6-8.1,8.1c0,4.5,3.6,8.1,8.1,8.1c4.5,0,8.1-3.6,8.1-8.1C20.1,57.5,16.5,53.9,12,53.9L12,53.9z M15.4,66.4
		c-0.3,0-0.5-0.1-0.7-0.3l0,0L12,63.3l-2.8,2.8l0,0c-0.2,0.2-0.4,0.3-0.7,0.3c-0.5,0-0.9-0.4-0.9-0.9c0-0.3,0.1-0.5,0.3-0.7l0,0
		l2.8-2.8l-2.8-2.8l0,0c-0.2-0.2-0.3-0.4-0.3-0.7c0-0.5,0.4-0.9,0.9-0.9c0.3,0,0.5,0.1,0.7,0.3l0,0l2.8,2.8l2.8-2.8l0,0
		c0.2-0.2,0.4-0.3,0.7-0.3c0.5,0,0.9,0.4,0.9,0.9c0,0.3-0.1,0.5-0.3,0.7l0,0L13.3,62l2.8,2.8l0,0c0.2,0.2,0.3,0.4,0.3,0.7
		C16.4,66,16,66.4,15.4,66.4L15.4,66.4z"/>
	<path fill="#90B5BF" d="M162,73c-6.1,0-11-4.9-11-11c0-6.1,4.9-11,11-11c6.1,0,11,4.9,11,11C173,68.1,168.1,73,162,73L162,73z
		 M162,53.1c-4.9,0-8.9,4-8.9,8.9c0,4.9,4,8.9,8.9,8.9c4.9,0,8.9-4,8.9-8.9S166.9,53.1,162,53.1L162,53.1z M165.8,66.8
		c-0.3,0-0.5-0.1-0.7-0.3l0,0l-3.1-3.1l-3.1,3.1l0,0c-0.2,0.2-0.4,0.3-0.7,0.3c-0.6,0-1-0.5-1-1c0-0.3,0.1-0.5,0.3-0.7l0,0l3.1-3.1
		l-3.1-3.1l0,0c-0.2-0.2-0.3-0.4-0.3-0.7c0-0.6,0.5-1,1-1c0.3,0,0.5,0.1,0.7,0.3l0,0l3.1,3.1l3.1-3.1l0,0c0.2-0.2,0.4-0.3,0.7-0.3
		c0.6,0,1,0.5,1,1c0,0.3-0.1,0.5-0.3,0.7l0,0l-3.1,3.1l3.1,3.1l0,0c0.2,0.2,0.3,0.4,0.3,0.7C166.8,66.4,166.4,66.8,165.8,66.8
		L165.8,66.8z"/>
	<path fill="#188AE2" d="M37,52c-5.5,0-10,4.5-10,10c0,5.5,4.5,10,10,10c5.5,0,10-4.5,10-10C47,56.5,42.5,52,37,52z M37,70.1
		c-4.5,0-8.1-3.6-8.1-8.1c0-4.5,3.6-8.1,8.1-8.1c4.5,0,8.1,3.6,8.1,8.1C45.1,66.5,41.5,70.1,37,70.1z"/>
	<path fill="#188AE2" d="M47.8,53.6l-2.4-2.4c-0.3-0.3-0.9-0.3-1.2,0L33,62.4V66h3.6l11.2-11.2C48.1,54.5,48.1,53.9,47.8,53.6z
		 M37.2,63L36,61.8l8.6-8.6l1.2,1.2L37.2,63z"/>
	<path fill="#FFFFFF" d="M36.4,63.8l-1.2-1.2l8.6-8.6l1.2,1.2L36.4,63.8z"/>
	<path fill="#E32D2F" d="M10.8,87.1c-0.3,0-0.5-0.1-0.7-0.3l0,0L7.4,84l-2.8,2.8l0,0c-0.2,0.2-0.4,0.3-0.7,0.3
		c-0.5,0-0.9-0.4-0.9-0.9c0-0.3,0.1-0.5,0.3-0.7l0,0L6,82.7l-2.8-2.8l0,0C3.1,79.8,3,79.5,3,79.3c0-0.5,0.4-0.9,0.9-0.9
		c0.3,0,0.5,0.1,0.7,0.3l0,0l2.8,2.8l2.8-2.8l0,0c0.2-0.2,0.4-0.3,0.7-0.3c0.5,0,0.9,0.4,0.9,0.9c0,0.3-0.1,0.5-0.3,0.7l0,0
		l-2.8,2.8l2.8,2.8l0,0c0.2,0.2,0.3,0.4,0.3,0.7C11.8,86.7,11.3,87.1,10.8,87.1L10.8,87.1z"/>
	<path fill="#FFFFFF" d="M26.8,79.1l-1.9-1.9c-0.3-0.3-0.7-0.3-1,0l-7,7v2.9h2.9l7-7C27.1,79.8,27.1,79.4,26.8,79.1z M20.3,84.7
		l-0.9-1l4.9-5l0.9,1L20.3,84.7z"/>
	<path fill="#10C469" d="M62,72c-5.5,0-10-4.5-10-10s4.5-10,10-10s10,4.5,10,10S67.5,72,62,72z M62,53.9c-4.5,0-8.1,3.6-8.1,8.1
		s3.6,8.1,8.1,8.1s8.1-3.6,8.1-8.1S66.5,53.9,62,53.9z M66.4,60.2l-5,5l0,0c-0.2,0.2-0.4,0.3-0.7,0.3s-0.5-0.1-0.7-0.3l0,0l-2.8-2.8
		l0,0c-0.2-0.2-0.3-0.4-0.3-0.7c0-0.5,0.4-0.9,0.9-0.9c0.3,0,0.5,0.1,0.7,0.3l0,0l2.1,2.2l4.3-4.3l0,0c0.2-0.2,0.4-0.3,0.7-0.3
		c0.5,0,0.9,0.4,0.9,0.9C66.7,59.8,66.6,60,66.4,60.2L66.4,60.2z M66.4,58.6L66.4,58.6L66.4,58.6L66.4,58.6z M58.6,66.4L58.6,66.4
		L58.6,66.4L58.6,66.4L58.6,66.4z M65.4,66.4L65.4,66.4L65.4,66.4L65.4,66.4z M66.4,65.4L66.4,65.4L66.4,65.4L66.4,65.4L66.4,65.4z"
		/>
	<path fill="#FFFFFF" d="M42.7,80.4l-6.3,6.3l0,0c-0.2,0.2-0.5,0.3-0.8,0.3s-0.6-0.1-0.8-0.3l0,0l-3.6-3.6l0,0
		c-0.2-0.2-0.3-0.5-0.3-0.8c0-0.7,0.5-1.2,1.2-1.2c0.3,0,0.6,0.1,0.8,0.3l0,0l2.7,2.7l5.5-5.5l0,0c0.2-0.2,0.5-0.3,0.8-0.3
		c0.7,0,1.2,0.5,1.2,1.2C43,79.9,42.9,80.2,42.7,80.4L42.7,80.4z"/>
	<polygon fill="#10C469" points="69,80.1 69,80.1 69,80.1 	"/>
	<polygon fill="#10C469" points="111.2,77.5 111.2,77.5 111.2,77.5 	"/>
	<path fill="#10C469" d="M95.6,59.3l-9.2,9.3l0,0c-0.2,0.2-0.6,0.4-1,0.4s-0.7-0.2-1-0.4l0,0l-4.1-4.1l0,0c-0.2-0.2-0.4-0.6-0.4-1
		c0-0.8,0.6-1.4,1.4-1.4c0.4,0,0.7,0.2,1,0.4l0,0l3.1,3.1l8.3-8.3l0,0c0.2-0.2,0.6-0.4,1-0.4c0.7,0,1.4,0.6,1.4,1.4
		C96,58.7,95.8,59.1,95.6,59.3L95.6,59.3z M95.5,57L95.5,57L95.5,57L95.5,57z"/>
	<path fill="#FFFFFF" d="M195.6,59.3l-9.2,9.3l0,0c-0.2,0.2-0.6,0.4-1,0.4s-0.7-0.2-1-0.4l0,0l-4.1-4.1l0,0c-0.2-0.2-0.4-0.6-0.4-1
		c0-0.8,0.6-1.4,1.4-1.4c0.4,0,0.7,0.2,1,0.4l0,0l3.1,3.1l8.3-8.3l0,0c0.2-0.2,0.6-0.4,1-0.4c0.7,0,1.4,0.6,1.4,1.4
		C196,58.7,195.8,59.1,195.6,59.3L195.6,59.3z M195.5,57L195.5,57L195.5,57L195.5,57z"/>
	<g>
		<g>
			<path fill="#188AE2" d="M112,61c-0.5,0-0.9,0.4-0.9,0.9v4.1c0,0.5,0.4,0.9,0.9,0.9c0.5,0,0.9-0.4,0.9-0.9v-4.1
				C112.9,61.4,112.5,61,112,61z M112,52c-5.5,0-10,4.5-10,10s4.5,10,10,10s10-4.5,10-10S117.5,52,112,52z M112,70.1
				c-4.5,0-8.1-3.6-8.1-8.1s3.6-8.1,8.1-8.1s8.1,3.6,8.1,8.1S116.5,70.1,112,70.1z M112,58c-0.6,0-1,0.4-1,1s0.4,1,1,1s1-0.4,1-1
				S112.6,58,112,58z"/>
		</g>
	</g>
	<g>
		<g>
			<circle fill="#FFFFFF" cx="137.5" cy="68.5" r="1.5"/>
		</g>
	</g>
	<path fill="#10C469" d="M54.5,79.2c-0.1-0.4-0.3-0.7-0.4-0.9c-0.1-0.2-0.2-0.4-0.3-0.6c-0.1-0.2-0.3-0.3-0.5-0.5
		c-0.2-0.1-0.5-0.2-0.8-0.2c-0.3,0-0.6,0.1-0.8,0.2c-0.2,0.1-0.4,0.3-0.5,0.5c-0.1,0.2-0.3,0.4-0.4,0.7c-0.1,0.3-0.2,0.6-0.3,0.8
		l-3,7.4c-0.1,0.3-0.2,0.5-0.3,0.7C47,87.5,47,87.6,47,87.8c0,0.3,0.1,0.5,0.3,0.7s0.5,0.3,0.8,0.3c0.4,0,0.6-0.1,0.8-0.3
		c0.2-0.2,0.3-0.6,0.6-1.2l0.6-1.5h4.8l0.6,1.4c0.1,0.2,0.2,0.4,0.3,0.6s0.2,0.4,0.3,0.5s0.2,0.2,0.3,0.3s0.3,0.1,0.5,0.1
		c0.3,0,0.6-0.1,0.8-0.3c0.2-0.2,0.3-0.5,0.3-0.7c0-0.3-0.1-0.7-0.4-1.2L54.5,79.2z M50.7,84.2l1.8-4.7l1.8,4.7H50.7z"/>
	<g>
		<g>
			<path fill="#394F59" d="M112.7,79.6c-0.2-0.4-0.7-0.5-1.1-0.3l-6.3,3.5c-0.2,0.1-0.4,0.4-0.4,0.6c0,0.3,0.1,0.5,0.4,0.6l6.3,3.7
				c0.1,0.1,0.3,0.1,0.4,0.1c0.3,0,0.5-0.1,0.7-0.4c0.2-0.4,0.1-0.8-0.3-1l-5.2-3.1l5.1-2.9C112.8,80.4,113,80,112.7,79.6z
				 M118.7,77c-0.5-0.1-1,0.1-1.2,0.6l-3.7,11.2c-0.2,0.5,0.1,1,0.6,1.1c0.1,0,0.2,0,0.3,0c0.4,0,0.8-0.2,0.9-0.6l3.7-11.2
				C119.5,77.7,119.2,77.2,118.7,77z"/>
		</g>
	</g>
	<g>
		<g>
			<path fill="#188AE2" d="M74.4,77H60.6c-0.3,0-0.6,0.3-0.6,0.6v10.9c0,0.3,0.3,0.6,0.6,0.6l13.8,0c0.3,0,0.6-0.3,0.6-0.6V77.6
				C75,77.3,74.7,77,74.4,77z M74,88H61l0-10l13,0V88z M64.6,81.7c0.8,0,1.4-0.6,1.4-1.3S65.4,79,64.6,79c-0.8,0-1.4,0.6-1.4,1.3
				C63.2,81.1,63.8,81.7,64.6,81.7z M73,81l-1,1.6L70,79l-2,5c0,0-5.3,0.1-6,3h11V81z"/>
		</g>
	</g>
	<path fill="#F6B442" d="M89,77H76c-0.8,0-1,0.8-1,1v10.6c0,0.2,0.2,0.4,0.3,0.4h14.3c0.2,0,0.3-0.2,0.3-0.4V78
		C90,80.3,89.4,77,89,77z M87.9,78h1.2v0.8h-1.2V78z M83.8,78H85v0.8h-1.2V78z M81.1,78h1.2v0.8h-1.2V78z M78.4,78h1.2v0.8h-1.2V78z
		 M75.9,78h1.2v0.8h-1.2V78z M77,88h-1v-1h1V88z M79.6,88.1h-1.2v-0.8h1.2V88.1z M82.3,88.1h-1.2v-0.8h1.2V88.1z M82,86h-6v-6h6V86z
		 M85,88.1h-1.2v-0.8H85V88.1z M89.1,88.1h-1.2v-0.8h1.2V88.1z M89,86h-5v-6h5V86z"/>
	<g>
		<g>
			<path fill="#FF6163" d="M104.8,77h-6.2c-0.1,0-0.2,0.1-0.2,0.2v5.6c0,0.1,0.1,0.2,0.2,0.2h3.1v0.8c0,1.8-0.6,2.7-1.9,2.7
				c-0.1,0-0.2,0.1-0.2,0.2v2c0,0.1,0.1,0.2,0.2,0.2c1.6,0,2.9-0.5,3.9-1.5c0.9-1,1.4-2.7,1.4-5.2v-5C105,77.1,104.9,77,104.8,77z
				 M96.4,77h-6.2c-0.1,0-0.2,0.1-0.2,0.2v5.6c0,0.1,0.1,0.2,0.2,0.2h3.1v0.8c0,1.8-0.6,2.7-1.9,2.7c-0.1,0-0.2,0.1-0.2,0.2v2
				c0,0.1,0.1,0.2,0.2,0.2c1.6,0,2.9-0.5,3.9-1.5c0.9-1,1.4-2.7,1.4-5.2v-5C96.7,77.1,96.6,77,96.4,77z"/>
		</g>
	</g>
	<g>
		<g>
			<path fill="#B5C2C8" d="M219,69h-15c-0.2,0-1,0.5-1,0.7s0.8,0.3,1,0.3h15c0.2,0,1-0.1,1-0.3C220,69.5,219.2,69,219,69z M208,61
				h0.3c0.2,0,0.3-0.1,0.3-0.3S208.2,60,208,60h-3c-0.2,0-0.8,0.5-0.8,0.7c0,0.2,0.1,0.3,0.3,0.3h0.4v6h0c-0.2,0-0.8,0.3-0.8,0.5
				s0.6,0.5,0.8,0.5h3c0.2,0,0.6-0.4,0.6-0.5S208.2,67,208,67h0V61z M207,67h-1v-6h1V67z M204,59h15c0.1,0,0.9-0.3,1-0.4
				c0-0.1,0-0.3-0.1-0.3L212,54c-0.1-0.1-0.9-0.1-1,0l-7.9,4.2c-0.1,0.1-0.2,0.2-0.1,0.3C203.1,58.7,203.9,59,204,59z M211,55h1l6,3
				h-13L211,55z M213,61h0.3c0.2,0,0.3-0.1,0.3-0.3S213.2,60,213,60h-3c-0.2,0-0.8,0.5-0.8,0.7c0,0.2,0.1,0.3,0.3,0.3h0.4v6h0
				c-0.2,0-0.8,0.3-0.8,0.5s0.6,0.5,0.8,0.5h3c0.2,0,0.6-0.4,0.6-0.5S213.2,67,213,67h0V61z M212,67h-1v-6h1V67z M218.3,61
				c0.2,0,0.3-0.1,0.3-0.3S218.2,60,218,60h-3c-0.2,0-0.8,0.5-0.8,0.7c0,0.2,0.1,0.3,0.3,0.3h0.4v6h0c-0.2,0-0.8,0.3-0.8,0.5
				s0.6,0.5,0.8,0.5h3c0.2,0,0.6-0.4,0.6-0.5S218.2,67,218,67v-6H218.3z M217,67h-1v-6h1V67z"/>
		</g>
	</g>
	<g>
		<g>
			<path fill="#B5C2C8" d="M127.5,75c-3,0-5.5,2.4-5.5,5.3c0,2.8,5,9.3,5.2,9.6c0.1,0.1,0.2,0.1,0.3,0.1s0.2-0.1,0.3-0.1
				c0.2-0.3,5.2-6.8,5.2-9.6C133,77.4,130.5,75,127.5,75z M127.5,89c-1.1-1.5-4.7-6.5-4.7-8.7c0-2.5,2.1-4.5,4.7-4.5s4.7,2,4.7,4.5
				C132.2,82.5,128.6,87.5,127.5,89z M127.5,78c-1.3,0-2.4,1-2.4,2.3s1.1,2.3,2.4,2.3c1.3,0,2.4-1,2.4-2.3
				C129.9,79,128.9,78,127.5,78z M127.5,81.9c-0.9,0-1.7-0.7-1.7-1.6c0-0.9,0.7-1.6,1.7-1.6c0.9,0,1.7,0.7,1.7,1.6
				C129.2,81.2,128.4,81.9,127.5,81.9z"/>
		</g>
	</g>
	<path fill="#FFFFFF" d="M137.5,64"/>
	<rect x="136" y="55" fill="#FFFFFF" width="3" height="10"/>
	<g id="XMLID_56_">
		<path id="XMLID_61_" fill="#445965" d="M50.4,112h10.5c0.2,0,0.4-0.2,0.4-0.4c0-0.2-0.2-0.4-0.4-0.4H50.4c-0.2,0-0.4,0.2-0.4,0.4
			C50,111.8,50.2,112,50.4,112z"/>
		<path id="XMLID_60_" fill="#445965" d="M50.4,109h4.2c0.2,0,0.4-0.2,0.4-0.4c0-0.2-0.2-0.4-0.4-0.4h-4.2c-0.2,0-0.4,0.2-0.4,0.4
			C50,108.8,50.2,109,50.4,109z"/>
		<path id="XMLID_59_" fill="#445965" d="M54.6,105.2h-4.2c-0.2,0-0.4,0.2-0.4,0.4c0,0.2,0.2,0.4,0.4,0.4h4.2c0.2,0,0.4-0.2,0.4-0.4
			C55,105.4,54.8,105.2,54.6,105.2z"/>
		<path id="XMLID_58_" fill="#445965" d="M65,119H48V97l4.1,0c0,0,0-0.4,0-0.8c0-0.3-0.1-0.9,0-1.2h-5c-0.6,0-1,0.7-1,1.3V120
			c0,0.6,0.5,1,1,1h18.4c0.6,0,1.6-0.4,1.6-1v-17l-2,2.9L65,119z"/>
	</g>
	<g id="XMLID_21_">
		<path id="XMLID_23_" fill="#445965" d="M151.6,97.8c-0.9-6.3-9.6-7.8-11.1-7.8l-0.5,0c-2.7,0-11.4,0.7-12.2,9.4
			c-0.1,1.2-0.8,4.6-2.1,5.9c-0.3,0.3-1,1-0.7,1.7c0.3,0.7,1.1,0.7,1.7,0.7c0.1,0,0.3,0,0.5,0c-0.1,0.5-0.1,0.8-0.2,1
			c-0.1,0.2-0.1,0.4-0.1,0.7c0,0.3,0.1,0.7,0.7,1c-0.3,0.5-0.3,1,0.2,1.5c0.1,0.1,0.2,0.2,0.2,1.4c0,0.8,0.3,1.5,0.9,1.9
			c0.6,0.5,1.6,0.7,2.4,0.6l0.2,0c0.4-0.1,0.8-0.1,1.1-0.1c0.5,0,0.8,0.1,1,0.4c0.2,0.3,0.4,0.5,0.6,0.7c0.6,0.6,1,1.1,1,2.8
			c0,1.3,0.2,1.9,0.2,2l0.2,0.4c0,0.1,0.1,0.1,0.2,0.1l12.4,0c0.1,0,0.1,0,0.2-0.1s0.1-0.1,0-0.2l-0.2-0.8c0-0.1-2-6.8,0.8-11.8
			c0.4-0.8,0.8-1.5,1.2-2l0,0C152.1,103.7,152.4,103.2,151.6,97.8z M148.6,106.2c-0.3,0.6-0.7,1.3-1.2,2.1c-2.4,4.3-1.7,9.7-1.2,12
			l-9.4,0c0-0.2,0-0.5,0-0.8c0-2.4-0.7-3.2-1.4-4c-0.1-0.2-0.3-0.3-0.4-0.5c-0.5-0.7-1.3-1.1-2.4-1.1c-0.5,0-1,0.1-1.4,0.1l-0.2,0
			c-0.1,0-0.2,0-0.3,0c-0.1,0-1.1,0-1.1-0.9c0-1.1-0.1-1.7-0.4-2.2c0.2-0.3,0.2-0.5,0.2-0.8c0-0.5-0.3-0.9-0.7-1.2
			c0.1-0.3,0.2-0.7,0.2-1.4c0-0.5-0.1-0.8-0.3-1c-0.3-0.4-0.9-0.5-1.3-0.5c1.7-2.2,2.2-6.3,2.2-6.5c0.6-7.1,7.5-7.9,10.5-7.9l0.5,0
			c0.1,0,8.6,0.7,9.5,6.3C150.6,102.8,150.5,103.1,148.6,106.2z"/>
	</g>
	<g id="XMLID_39_">
		<path id="XMLID_40_" fill="#10C469" d="M148.4,99c0-0.4-0.4-1-0.6-1.3c-0.3-0.2-0.5-0.5-0.6-0.8c0-0.2-0.1-0.7-0.7-0.7
			c-0.6,0-0.6-0.6-0.8-0.8c-0.2-0.2-0.5-0.8-0.9-0.6c-0.4,0.2-0.6-0.6-1-0.7c-0.4-0.1-0.8-0.4-1.3-0.1c-0.6,0.3-0.5-0.5-0.7-0.7
			c-0.2-0.2-0.8-0.2-1,0.1c-0.3,0.3-0.9,0-1.1-0.2c-0.3-0.3-1-0.2-1.2,0c-0.2,0.2-1,0.4-1.4,0.4c-0.4,0-1.2,0.2-1.2,0.4
			c0,0.2-1.2,1-1.8,1.2c-0.7,0.2-0.7,0.8-0.7,1.2c0,0.4-0.4,1-0.9,1.5c-0.5,0.5-0.1,0.6-0.2,1.1c-0.1,0.5,0,0.5-0.2,1.2
			c-0.2,0.6,0.4,1.7,0.4,1.7s0.9,0.3,0.9,0.9c0,0.6,0.8,0.3,1.1,0.3c0.3,0,0.9,0.2,1.6,0.8c0.6,0.6,0.7,0.3,1.3,0
			c0.6-0.4,0.8,0,1.2,0.3c0.4,0.4,0.9,0.3,1.2,0c0.3-0.3,1.3-0.3,1.8-0.3c0.5,0,0.3,0.3,0.1,1c-0.2,0.6,0.6,0.2,0.8,0.2
			c0.2,0,0.3,0.3,0.6,0.9c0.4,0.6,0.9,0.6,1.3,1c0.4,0.4,0.8-0.6,1.2-1.1c0.5-0.5,1.1-0.7,1.8-0.7c0.7,0,0.4-0.5,0.4-0.9
			c0-0.4,0-0.8,0.3-1.2c0.3-0.3,0.6-0.7,0.3-1c-0.3-0.3,0-0.6,0.2-0.9c0.3-0.3,0.1-0.9-0.2-1.2C148.1,99.7,148.4,99.3,148.4,99z"/>
	</g>
	<g id="XMLID_81_">
		<path id="XMLID_104_" fill="#445965" d="M9.1,121.6c-0.1,0.5,0.2,1.1,0.8,1.2c0.1,0,0.2,0,0.3,0c0.4,0,0.8-0.3,1-0.7l1.8-6.3h-3
			L9.1,121.6z"/>
		<path id="XMLID_95_" fill="#445965" d="M22,115.8h-3l1.7,6.3c0.2,0.5,0.7,0.8,1.2,0.7c0.5-0.1,0.9-0.6,0.8-1.2L22,115.8z"/>
		<path id="XMLID_92_" fill="#445965" d="M28,92.8h-7L20.6,93c0-0.6-0.5-1-1-1s-1,0.5-1,1L18,92.8h-4L13.3,93c0-0.6-0.5-1-1-1
			c-0.6,0-1,0.5-1,1L10,92.8H4c-0.6,0-1,1-1,1.6v18.4c0,0.6,0.5,1,1,1H28c0.6,0,1-0.5,1-1V94.4C29,93.8,28.6,92.8,28,92.8z
			 M27,111.8H5v-17h22V111.8z"/>
	</g>
	<g id="XMLID_108_">
		<path id="XMLID_109_" fill="#445965" d="M188.7,97.5l-4.1-4c-0.2-0.2-0.4-0.3-0.7-0.3h-16.1c-0.5,0-0.9,0.4-0.9,0.9v25.9
			c0,0.5,0.4,0.9,0.9,0.9h20.1c0.5,0,0.9-0.4,0.9-0.9V98.2C189,97.9,188.9,97.7,188.7,97.5z M169,119V95h14v3c0,0.3,0.7,1,1,1h3v20
			H169z"/>
	</g>
	<g id="XMLID_22_">
		<path id="XMLID_49_" fill="#10C469" d="M185,112h-9.6c-0.2,0-0.4,0.2-0.4,0.4s0.2,0.4,0.4,0.4h9.6c0.2,0,0.4-0.2,0.4-0.4
			S185.2,112,185,112z"/>
		<path id="XMLID_48_" fill="#10C469" d="M185,108h-9.6c-0.2,0-0.4,0.2-0.4,0.4c0,0.2,0.2,0.4,0.4,0.4h9.6c0.2,0,0.4-0.2,0.4-0.4
			C185.4,108.2,185.2,108,185,108z"/>
		<path id="XMLID_47_" fill="#10C469" d="M184.6,103.2H175c-0.2,0-0.4,0.2-0.4,0.4c0,0.2,0.2,0.4,0.4,0.4h9.6c0.2,0,0.4-0.2,0.4-0.4
			S184.8,103.2,184.6,103.2z"/>
		<path id="XMLID_46_" fill="#10C469" d="M173,102h-1.6c-0.2,0-0.4,0.2-0.4,0.4v1.6c0,0.2,0.2,0.4,0.4,0.4h1.6
			c0.2,0,0.4-0.2,0.4-0.4v-1.6C173.4,102.2,173.2,102,173,102z"/>
		<path id="XMLID_45_" fill="#10C469" d="M173,107l-1.6,0c-0.2,0-0.4,0.2-0.4,0.4v1.6c0,0.2,0.2,0.4,0.4,0.4l1.6,0
			c0.2,0,0.4-0.2,0.4-0.4v-1.6C173.4,107.2,173.2,107,173,107z"/>
		<path id="XMLID_44_" fill="#10C469" d="M173,111h-1.6c-0.2,0-0.4,0.2-0.4,0.4v1.6c0,0.2,0.2,0.4,0.4,0.4h1.6
			c0.2,0,0.4-0.2,0.4-0.4v-1.6C173.4,111.2,173.2,111,173,111z"/>
	</g>
	<path id="XMLID_151_" fill="#445965" d="M113,92.7v25.7c0,0.4-0.7,0.6-1,0.6H87c-0.3,0-1-0.3-1-0.6V92.7c0-0.4,0.3-0.7,0.6-0.7
		h25.9C112.7,92,113,92.3,113,92.7z M109,95h2v-2h-2V95z M105,95h2v-2h-2V95z M101,95h2v-2h-2V95z M97,95h2v-2h-2V95z M93,95h2v-2
		h-2V95z M89,95h2v-2h-2V95z M90,116h-2v2h2V116z M94,116h-2v2h2V116z M98,116h-2v2h2V116z M102,116h-2v2h2V116z M107.3,115.9h-2
		v1.5h2V115.9z M111.5,115.9h-2v1.5h2V115.9z M111,97l-5.1,0l-4.9,0H88v17l15,0l5.1,0l2.9,0V97z"/>
	<path id="XMLID_1_" fill="#FFFFFF" d="M40,119.5c-0.1,5.2-4.4,9.4-9.6,9.4s-9.4-4.4-9.4-9.6c0.1-5.2,4.4-9.4,9.6-9.4
		C35.9,109.9,40.1,114.2,40,119.5z"/>
	<path id="XMLID_91_" fill="#445965" d="M38,119.4c-0.1,4.1-3.5,7.5-7.6,7.4s-7.5-3.5-7.4-7.6c0.1-4.1,3.5-7.5,7.6-7.4
		C34.7,111.9,38.1,115.3,38,119.4z M34.7,119.4c0-0.5-0.4-0.9-0.9-0.9l-2.5,0l0-2.5c0-0.5-0.4-0.9-0.9-0.9c-0.5,0-0.9,0.4-0.9,0.9
		l0,2.5l-2.5,0c-0.5,0-0.9,0.4-0.9,0.9c0,0.5,0.4,0.9,0.9,0.9l2.5,0l0,2.5c0,0.5,0.4,0.9,0.9,0.9c0.5,0,0.9-0.4,0.9-0.9l0-2.5l2.5,0
		C34.3,120.3,34.7,119.9,34.7,119.4z"/>
	<path id="XMLID_6_" fill="#FFFFFF" d="M76,119.6c-0.1,5.2-4.4,9.4-9.6,9.4s-9.4-4.4-9.4-9.6c0.1-5.2,4.4-9.4,9.6-9.4
		C71.9,110.1,76.1,114.4,76,119.6z"/>
	<path id="XMLID_2_" fill="#445965" d="M74,119.6c-0.1,4.1-3.5,7.5-7.6,7.4s-7.5-3.5-7.4-7.6c0.1-4.1,3.5-7.5,7.6-7.4
		C70.7,112.1,74.1,115.5,74,119.6z M70.7,119.6c0-0.5-0.4-0.9-0.9-0.9l-2.5,0l0-2.5c0-0.5-0.4-0.9-0.9-0.9c-0.5,0-0.9,0.4-0.9,0.9
		l0,2.5l-2.5,0c-0.5,0-0.9,0.4-0.9,0.9c0,0.5,0.4,0.9,0.9,0.9l2.5,0l0,2.5c0,0.5,0.4,0.9,0.9,0.9c0.5,0,0.9-0.4,0.9-0.9l0-2.5l2.5,0
		C70.3,120.4,70.7,120,70.7,119.6z"/>
	<path id="XMLID_11_" fill="#FFFFFF" d="M119,119.6c-0.1,5.2-4.4,9.4-9.6,9.4c-5.2-0.1-9.4-4.4-9.4-9.6c0.1-5.2,4.4-9.4,9.6-9.4
		C114.9,110.1,119.1,114.4,119,119.6z"/>
	<path id="XMLID_8_" fill="#445965" d="M117,119.6c-0.1,4.1-3.5,7.5-7.6,7.4c-4.1-0.1-7.5-3.5-7.4-7.6c0.1-4.1,3.5-7.5,7.6-7.4
		C113.7,112.1,117.1,115.5,117,119.6z M113.7,119.6c0-0.5-0.4-0.9-0.9-0.9l-2.5,0l0-2.5c0-0.5-0.4-0.9-0.9-0.9
		c-0.5,0-0.9,0.4-0.9,0.9l0,2.5l-2.5,0c-0.5,0-0.9,0.4-0.9,0.9c0,0.5,0.4,0.9,0.9,0.9l2.5,0l0,2.5c0,0.5,0.4,0.9,0.9,0.9
		c0.5,0,0.9-0.4,0.9-0.9l0-2.5l2.5,0C113.3,120.4,113.7,120,113.7,119.6z"/>
	<path id="XMLID_16_" fill="#FFFFFF" d="M197,118.6c-0.1,5.2-4.4,9.4-9.6,9.4s-9.4-4.4-9.4-9.6c0.1-5.2,4.4-9.4,9.6-9.4
		C192.9,109.1,197.1,113.4,197,118.6z"/>
	<path id="XMLID_13_" fill="#445965" d="M195,118.6c-0.1,4.1-3.5,7.5-7.6,7.4s-7.5-3.5-7.4-7.6c0.1-4.1,3.5-7.5,7.6-7.4
		C191.7,111.1,195.1,114.5,195,118.6z M191.7,118.6c0-0.5-0.4-0.9-0.9-0.9l-2.5,0l0-2.5c0-0.5-0.4-0.9-0.9-0.9
		c-0.5,0-0.9,0.4-0.9,0.9l0,2.5l-2.5,0c-0.5,0-0.9,0.4-0.9,0.9c0,0.5,0.4,0.9,0.9,0.9l2.5,0l0,2.5c0,0.5,0.4,0.9,0.9,0.9
		c0.5,0,0.9-0.4,0.9-0.9l0-2.5l2.5,0C191.3,119.4,191.7,119,191.7,118.6z"/>
	<path id="XMLID_26_" fill="#FFFFFF" d="M157,119.6c-0.1,5.2-4.4,9.4-9.6,9.4s-9.4-4.4-9.4-9.6c0.1-5.2,4.4-9.4,9.6-9.4
		C152.9,110.1,157.1,114.4,157,119.6z"/>
	<path id="XMLID_18_" fill="#445965" d="M155,119.6c-0.1,4.1-3.5,7.5-7.6,7.4c-4.1-0.1-7.5-3.5-7.4-7.6c0.1-4.1,3.5-7.5,7.6-7.4
		C151.7,112.1,155.1,115.5,155,119.6z M151.7,119.6c0-0.5-0.4-0.9-0.9-0.9l-2.5,0l0-2.5c0-0.5-0.4-0.9-0.9-0.9
		c-0.5,0-0.9,0.4-0.9,0.9l0,2.5l-2.5,0c-0.5,0-0.9,0.4-0.9,0.9c0,0.5,0.4,0.9,0.9,0.9l2.5,0l0,2.5c0,0.5,0.4,0.9,0.9,0.9
		c0.5,0,0.9-0.4,0.9-0.9l0-2.5l2.5,0C151.3,120.4,151.7,120,151.7,119.6z"/>
	<g>
		<path id="XMLID_34_" fill="#10C469" d="M19.8,106.6l3.4-4.6c-0.3-0.1-0.6-0.3-0.7-0.6l-3.5,4.6C19.4,106.1,19.7,106.3,19.8,106.6z
			"/>
		<path id="XMLID_33_" fill="#10C469" d="M17.2,106.6c0.2-0.3,0.4-0.5,0.8-0.6l-3.5-4.6c-0.2,0.3-0.4,0.5-0.8,0.6L17.2,106.6z"/>
		<path id="XMLID_32_" fill="#10C469" d="M10.2,103.7l2.1-1.8c-0.3-0.2-0.5-0.4-0.6-0.7l-2,1.8C9.9,103.1,10.1,103.4,10.2,103.7z"/>
		<path id="XMLID_31_" fill="#10C469" d="M12.7,101.5c0.1,0.1,0.3,0.1,0.5,0.1c0.1,0,0.2,0,0.3,0c0.3-0.1,0.6-0.3,0.7-0.6
			c0.1-0.2,0.1-0.3,0.1-0.5c0-0.6-0.5-1.1-1.1-1.1c-0.6,0-1.1,0.5-1.1,1.1c0,0.1,0,0.2,0.1,0.3C12.1,101.1,12.4,101.4,12.7,101.5z"
			/>
		<path id="XMLID_30_" fill="#10C469" d="M18.5,108.7c0.6,0,1.1-0.5,1.1-1.1c0-0.2-0.1-0.4-0.1-0.5c0,0,0,0,0,0
			c0-0.1-0.1-0.1-0.1-0.2c0,0,0,0,0,0c0-0.1-0.1-0.1-0.2-0.2c0,0,0,0,0,0c-0.1,0-0.1-0.1-0.2-0.1c0,0,0,0,0,0
			c-0.1,0-0.1-0.1-0.2-0.1c-0.1,0-0.2,0-0.2,0c-0.2,0-0.3,0-0.5,0.1c0,0,0,0,0,0c-0.1,0-0.1,0.1-0.2,0.1c0,0,0,0,0,0
			c-0.1,0-0.1,0.1-0.2,0.2c0,0,0,0,0,0c0,0.1-0.1,0.1-0.1,0.2c0,0,0,0,0,0l0,0c-0.1,0.2-0.1,0.3-0.1,0.5
			C17.4,108.1,17.9,108.7,18.5,108.7"/>
		<path id="XMLID_29_" fill="#10C469" d="M23.6,101.6c0.1,0,0.2,0,0.3,0c0.6,0,1.1-0.5,1.1-1.1c0-0.6-0.5-1.1-1.1-1.1
			c-0.6,0-1.1,0.5-1.1,1.1c0,0.2,0,0.4,0.1,0.5C23,101.3,23.3,101.5,23.6,101.6z"/>
		<path id="XMLID_28_" fill="#10C469" d="M8.7,105.4c0.6,0,1.1-0.5,1.1-1.1c0-0.1,0-0.2,0-0.3c-0.1-0.3-0.3-0.6-0.6-0.7
			c-0.2-0.1-0.3-0.1-0.5-0.1c-0.6,0-1.1,0.5-1.1,1.1C7.6,104.9,8.1,105.4,8.7,105.4z"/>
	</g>
	<path id="XMLID_35_" fill="#10C469" d="M61.5,106.8l6.8-7.8c0.6-0.7,0.9-1.5,0.9-2.4c0-2.1-1.7-3.8-3.8-3.8c-1.7,0-3.3,1.2-3.8,2.8
		c-0.4-1.6-2-2.8-3.8-2.8c-1.8,0-3.3,1.2-3.7,2.9C54,96,54,96.3,54,96.6c0,0.4,0.1,0.8,0.2,1.2c0.1,0.4,0.3,0.8,0.6,1.1L61.5,106.8"
		/>
	<g id="XMLID_36_">
		<path id="XMLID_38_" fill="#10C469" d="M98.1,102.8c-0.1-0.3-0.2-0.6-0.2-1c0-1.7,1.3-3,2.8-3s2.8,1.3,2.8,3c0,0.3-0.1,0.7-0.2,1
			c0.2,0.1,0.3,0.3,0.3,0.5c0,0.3-0.2,0.5-0.5,0.5c0,0,0,0,0,0c-0.1,1.4-1.2,2.7-2.5,2.7c-1.3,0-2.4-1.4-2.5-2.7c0,0,0,0,0,0
			c-0.3,0-0.5-0.2-0.5-0.5C97.8,103.1,97.9,102.9,98.1,102.8z"/>
		<path id="XMLID_37_" fill="#10C469" d="M106.9,109.6c-1.2-1.1-2.6-1.9-4.1-2.3c0,0-0.1,0-0.1,0h-0.1c0,0-0.1,0-0.1,0
			c-0.5,0.2-1.1,0.4-1.7,0.4s-1.3-0.1-1.7-0.4c0,0-0.1,0-0.1,0h-0.1c0,0,0,0-0.1,0c-1.6,0.4-3,1.2-4.2,2.3c-0.1,0-0.1,0.1-0.1,0.2
			v0.9c0,0.1,0.1,0.3,0.3,0.3h12c0.1,0,0.3-0.1,0.3-0.3v-0.9C107,109.7,107,109.7,106.9,109.6z"/>
	</g>
	<g>
		<g>
			<path fill="#7B9099" d="M307,18h2v-2h-2V18z M307,14h2v-2h-2V14z M307,10h2V8h-2V10z M311,18h2v-2h-2V18z M311,14h2v-2h-2V14z
				 M311,10h2V8h-2V10z M315,18h2v-2h-2V18z M315,14h2v-2h-2V14z M315,8v2h2V8H315z"/>
		</g>
	</g>
	<g>
		<g>
			<path fill="#CED9DD" d="M307,43h2v-2h-2V43z M307,39h2v-2h-2V39z M307,35h2v-2h-2V35z M311,43h2v-2h-2V43z M311,39h2v-2h-2V39z
				 M311,35h2v-2h-2V35z M315,43h2v-2h-2V43z M315,39h2v-2h-2V39z M315,33v2h2v-2H315z"/>
		</g>
	</g>
	<g>
		<path fill="#7B9099" d="M344,35h-1.8l0.9-1.5c0.3-0.5,0.1-1.1-0.4-1.4l-3.4-2c-0.5-0.3-1.1-0.1-1.4,0.4L337,32l-0.9-1.5
			c-0.3-0.5-0.9-0.6-1.4-0.4l-3.4,2c-0.5,0.3-0.6,0.9-0.4,1.4l0.9,1.5H330c-0.6,0-1,0.4-1,1v4c0,0.6,0.4,1,1,1h1.8l-0.9,1.5
			c-0.3,0.5-0.1,1.1,0.4,1.4l3.4,2c0.5,0.3,1.1,0.1,1.4-0.4l0.9-1.5l0.9,1.5c0.3,0.5,0.9,0.6,1.4,0.4l3.4-2c0.5-0.3,0.6-0.9,0.4-1.4
			l-0.9-1.5h1.8c0.6,0,1-0.4,1-1v-4C345,35.4,344.5,35,344,35z M343,39h-1.6c-0.2,0.9-0.7,1.7-1.3,2.3l0.8,1.4l-1.7,1l-0.8-1.4
			c-0.4,0.1-0.9,0.2-1.3,0.2c-0.5,0-0.9-0.1-1.3-0.2l-0.8,1.4l-1.7-1l0.8-1.4c-0.7-0.6-1.1-1.4-1.3-2.3H331v-2h1.6
			c0.2-0.9,0.7-1.7,1.3-2.3l-0.8-1.4l1.7-1l0.8,1.3c0.4-0.1,0.9-0.2,1.3-0.2s0.9,0.1,1.3,0.2l0.8-1.3l1.7,1l-0.8,1.4
			c0.7,0.6,1.1,1.4,1.3,2.3h1.6V39z"/>
		<circle fill="#7B9099" cx="337" cy="38" r="2"/>
	</g>
	<rect x="135" y="89" fill="#B5C2C8" width="15.1" height="1"/>
	<rect x="135" y="79" fill="#B5C2C8" width="15.1" height="1"/>

		<rect x="134.9" y="77.4" transform="matrix(-0.9136 0.4066 -0.4066 -0.9136 297.3181 92.7127)" fill="#B5C2C8" width="7.9" height="1"/>

		<rect x="142.2" y="77.4" transform="matrix(0.9136 0.4066 -0.4066 0.9136 44.3209 -52.7059)" fill="#B5C2C8" width="7.9" height="1"/>
	<rect x="137" y="87" fill="#B5C2C8" width="3" height="1"/>
	<rect x="139" y="81" fill="#B5C2C8" width="1" height="6"/>
	<rect x="137" y="81" fill="#B5C2C8" width="1" height="6"/>
	<rect x="137" y="81" fill="#B5C2C8" width="3" height="0.9"/>
	<rect x="141" y="87" fill="#B5C2C8" width="3" height="1"/>
	<rect x="143" y="81" fill="#B5C2C8" width="1" height="6"/>
	<rect x="141" y="81" fill="#B5C2C8" width="1" height="6"/>
	<rect x="141" y="81" fill="#B5C2C8" width="3" height="0.9"/>
	<rect x="145" y="87" fill="#B5C2C8" width="3" height="1"/>
	<rect x="147" y="81" fill="#B5C2C8" width="1" height="6"/>
	<rect x="145" y="81" fill="#B5C2C8" width="1" height="6"/>
	<rect x="145" y="81" fill="#B5C2C8" width="3" height="0.9"/>
	<g id="Shape_76">
		<g>
			<path fill="#7B9099" d="M365,15.2h-1.6c1.3-0.8,2.2-2.4,2.2-4.3c0-2.7-1.8-4.8-4-4.8c-1.1,0-2.1,0.5-2.9,1.5
				c-0.7,0.9-1.1,2.1-1.1,3.4c0,1.9,0.9,3.5,2.2,4.3h-1.6c-2.4,0-4.4,2-4.4,4.4c0,0.8,0.7,1.5,1.5,1.5h12.4c0.8,0,1.5-0.7,1.5-1.5
				C369.4,17.1,367.5,15.2,365,15.2z M362.1,5.4c0.4-0.2,0.8-0.3,1.2-0.3c1.6,0,2.9,1.7,2.9,3.8c0,0.4,0,0.7-0.1,1.1
				c-0.1,0.3,0.1,0.6,0.4,0.6c0,0,0.1,0,0.1,0c0.2,0,0.5-0.2,0.5-0.4c0.1-0.4,0.2-0.9,0.2-1.3c0-2.7-1.8-4.8-4-4.8
				c-0.6,0-1.2,0.2-1.7,0.5c-0.3,0.1-0.3,0.5-0.2,0.7C361.5,5.5,361.8,5.5,362.1,5.4z M366.8,13c-0.3,0-0.5,0.2-0.5,0.5
				c0,0.3,0.2,0.5,0.5,0.5c1.8,0,3.2,1.5,3.2,3.3c0,0.1,0,0.1,0,0.2c-0.1,0.3,0,0.6,0.3,0.7c0.1,0,0.1,0,0.2,0
				c0.2,0,0.4-0.1,0.5-0.3c0.1-0.2,0.1-0.4,0.1-0.6C371,15,369.2,13,366.8,13z"/>
		</g>
	</g>
	<g transform="translate(144 240)">
		<path fill="#7B9099" d="M218.4-194c-4.1,0-7.4-3.3-7.4-7.4c0-2.1,0.9-4.1,2.5-5.6c0.4-0.4,1.1-0.4,1.5,0.1s0.4,1.1-0.1,1.5
			c-1.1,1-1.8,2.5-1.8,4c0,2.9,2.4,5.3,5.3,5.3c2.9,0,5.3-2.4,5.3-5.3c0-1.5-0.6-3-1.8-4c-0.4-0.4-0.5-1.1-0.1-1.5
			c0.4-0.4,1.1-0.5,1.5-0.1c1.6,1.4,2.5,3.4,2.5,5.6C225.9-197.3,222.5-194,218.4-194L218.4-194z M219.5-203.6v-5.3
			c0-0.6-0.5-1.1-1.1-1.1s-1.1,0.5-1.1,1.1v5.3c0,0.6,0.5,1.1,1.1,1.1C219-202.5,219.5-203,219.5-203.6z"/>
	</g>
	<g>
		<path fill="#7B9099" d="M343.9,61.4c-1.2,0-2.1-1-2.1-2.1c0,1.2-1,2.1-2.1,2.1s-2.1-1-2.1-2.1c0,1.2-1,2.1-2.1,2.1s-2.1-1-2.1-2.1
			c0,1.2-1,2.1-2.1,2.1s-2.1-1-2.1-2.1l2.1-5.3h12.8l2.1,5.3C346,60.5,345,61.4,343.9,61.4z"/>
		<path fill="#7B9099" d="M331,69v-6c0.8,0,1.7-0.8,2-1l0,5.1l0,0.9v1H331z"/>
		<path fill="#7B9099" d="M344,63v6h-2v-2v-1v-4C342.6,62.5,343.2,63,344,63z"/>
		<polygon fill="#7B9099" points="333,71 334,71 334,69 341,69 341,71 342,71 342,70 345,70 345,71 330,71 330,70 333,70 		"/>
	</g>
	<path fill="#188AE2" d="M230,127l-9.8-9.6L211,127V94v-1h19V127z"/>
	<path fill="#5AABE9" d="M225.7,102.9l-3.7-0.1l-1.2-3.6c-0.1-0.3-0.5-0.3-0.6,0l-1.2,3.6l-3.7,0.1c-0.3,0-0.4,0.4-0.2,0.6l2.9,2.3
		l-1.1,3.7c-0.1,0.3,0.2,0.6,0.5,0.4l3-2.2l3,2.2c0.3,0.2,0.6-0.1,0.5-0.4l-1.1-3.7l2.9-2.3C226.1,103.3,226,102.9,225.7,102.9z"/>
	<g>
		<polygon fill="#FFFFFF" points="260.2,116.7 251.5,125.8 251.5,93.5 269.5,93.5 269.5,125.8 		"/>
		<path fill="#5AABE9" d="M252,94L252,94h17v30.6l-8.1-7.9l-0.7-0.7l-0.7,0.7l-7.5,7.8V94 M251,93v1v33l9.2-9.6l9.8,9.6V93H251
			L251,93z"/>
	</g>
	<path fill="#FBB03B" d="M265.7,102l-3.7-0.1l-1.2-3.6c-0.1-0.3-0.5-0.3-0.6,0l-1.2,3.6l-3.7,0.1c-0.3,0-0.4,0.4-0.2,0.6l2.9,2.3
		l-1.1,3.7c-0.1,0.3,0.2,0.6,0.5,0.4l3-2.2l3,2.2c0.3,0.2,0.6-0.1,0.5-0.4l-1.1-3.7l2.9-2.3C266.1,102.4,266,102,265.7,102z"/>
	<g opacity="0.5">
		<g>
			<path fill="#E3EBEE" d="M312.9,52.6c-3.9,0-7.1,3.1-7.1,6.8c0,3.6,6.4,12,6.7,12.3c0.1,0.1,0.2,0.2,0.4,0.2s0.3-0.1,0.4-0.2
				c0.3-0.4,6.7-8.7,6.7-12.3C320,55.7,316.8,52.6,312.9,52.6z M312.9,70.7c-1.4-1.9-6.1-8.4-6.1-11.3c0-3.2,2.7-5.9,6.1-5.9
				s6.1,2.6,6.1,5.9C319,62.3,314.3,68.8,312.9,70.7z M312.9,56.4c-1.7,0-3.1,1.4-3.1,3c0,1.7,1.4,3,3.1,3s3.1-1.4,3.1-3
				C316.1,57.8,314.7,56.4,312.9,56.4z M312.9,61.5c-1.2,0-2.1-0.9-2.1-2.1s1-2.1,2.1-2.1s2.1,0.9,2.1,2.1
				C315.1,60.6,314.1,61.5,312.9,61.5z"/>
		</g>
	</g>
</g>
<g id="_x31_5px_grid" display="none">
</g>
<g id="_x32_5px_grid">
</g>
<g id="_x34_0px">
</g>
</svg>
