<svg version="1.1" id="Layer_1" xmlns="http://www.w3.org/2000/svg" xmlns:xlink="http://www.w3.org/1999/xlink" x="0px" y="0px"
	 width="136px" height="35px" viewBox="0 0 136 35" style="enable-background:new 0 0 136 35;" xml:space="preserve">
<g>
	<path style="fill:#FFFFFF;" d="M38.004,21.766l0.785-1.386c0.134-0.217,0.451-0.184,0.568-0.1c0.067,0.033,1.269,0.918,2.372,0.918
		c0.668,0,1.153-0.417,1.153-1.002c0-0.702-0.585-1.236-1.721-1.687c-1.436-0.568-3.241-1.687-3.241-3.691
		c0-1.654,1.286-3.324,3.859-3.324c1.737,0,3.074,0.886,3.575,1.253c0.2,0.117,0.167,0.417,0.1,0.535l-0.852,1.286
		c-0.117,0.184-0.417,0.335-0.568,0.217c-0.151-0.084-1.37-1.002-2.389-1.002c-0.601,0-1.053,0.401-1.053,0.852
		c0,0.618,0.501,1.086,1.821,1.62c1.303,0.518,3.374,1.537,3.374,3.808c0,1.721-1.486,3.458-3.942,3.458
		c-2.172,0-3.374-0.902-3.758-1.286C37.92,22.066,37.871,22,38.004,21.766z"/>
	<path style="fill:#FFFFFF;" d="M53.487,14.115h-2.389c-0.184,0-0.317-0.15-0.317-0.317v-1.821c0-0.167,0.134-0.317,0.317-0.317
		h7.416c0.184,0,0.317,0.151,0.317,0.317v1.821c0,0.167-0.134,0.317-0.317,0.317h-2.389v8.92c0,0.167-0.15,0.317-0.317,0.317h-2.004
		c-0.167,0-0.317-0.151-0.317-0.317V14.115z"/>
	<path style="fill:#FFFFFF;" d="M64.492,11.977c0-0.167,0.151-0.317,0.317-0.317h2.054c0.184,0,0.317,0.151,0.317,0.317v6.765
		c0,1.169,0.869,2.105,2.054,2.105c1.203,0,2.088-0.936,2.088-2.105v-6.765c0-0.167,0.133-0.317,0.317-0.317h2.054
		c0.167,0,0.317,0.151,0.317,0.317v6.898c0,2.539-2.138,4.644-4.778,4.644c-2.622,0-4.744-2.105-4.744-4.644V11.977z"/>
	<path style="fill:#FFFFFF;" d="M80.86,11.977c0-0.167,0.133-0.317,0.3-0.317h4.076c3.224,0,5.863,2.622,5.863,5.829
		c0,3.241-2.639,5.863-5.863,5.863h-4.076c-0.167,0-0.3-0.151-0.3-0.317V11.977z M85.069,20.881c1.888,0,3.257-1.487,3.257-3.391
		c0-1.888-1.37-3.374-3.257-3.374h-1.604v6.765H85.069z"/>
	<path style="fill:#FFFFFF;" d="M97.295,11.977c0-0.167,0.15-0.317,0.317-0.317h2.005c0.167,0,0.317,0.151,0.317,0.317v11.058
		c0,0.167-0.151,0.317-0.317,0.317h-2.005c-0.167,0-0.317-0.151-0.317-0.317V11.977z"/>
	<path style="fill:#FFFFFF;" d="M106.797,11.977c0-0.167,0.151-0.317,0.317-0.317h2.054c0.184,0,0.317,0.151,0.317,0.317v6.765
		c0,1.169,0.869,2.105,2.055,2.105c1.202,0,2.088-0.936,2.088-2.105v-6.765c0-0.167,0.133-0.317,0.317-0.317h2.055
		c0.167,0,0.317,0.151,0.317,0.317v6.898c0,2.539-2.138,4.644-4.777,4.644c-2.623,0-4.744-2.105-4.744-4.644V11.977z"/>
	<path style="fill:#FFFFFF;" d="M124.317,11.761c0.017-0.151,0.167-0.268,0.301-0.268h0.267c0.084,0,0.234,0.067,0.284,0.167
		l3.875,7.216h0.033l3.875-7.216c0.05-0.1,0.2-0.167,0.284-0.167h0.267c0.133,0,0.284,0.117,0.301,0.268l1.888,11.225
		c0.033,0.217-0.117,0.367-0.317,0.367h-1.971c-0.15,0-0.301-0.134-0.317-0.268l-0.752-5.161h-0.033l-2.806,5.412
		c-0.05,0.1-0.2,0.184-0.284,0.184h-0.301c-0.1,0-0.234-0.084-0.284-0.184l-2.823-5.412h-0.033l-0.735,5.161
		c-0.017,0.134-0.151,0.268-0.317,0.268h-1.971c-0.2,0-0.351-0.151-0.317-0.367L124.317,11.761z"/>
</g>
<g>
	<linearGradient id="SVGID_1_" gradientUnits="userSpaceOnUse" x1="13.2288" y1="1.045919e-10" x2="13.2288" y2="41.8575">
		<stop  offset="0" style="stop-color:#58B952"/>
		<stop  offset="1" style="stop-color:#30917F"/>
	</linearGradient>
	<path style="fill:url(#SVGID_1_);" d="M25.744,18.792l-9.233-9.233V0.411c-0.548-0.547-1.443-0.547-1.991,0L9.946,4.985
		c-0.422,0.422-9.233,9.233-9.233,9.233c-0.547,0.547-0.547,1.443,0,1.991l9.233,9.233v9.148c0.547,0.547,1.443,0.547,1.991,0
		l4.574-4.574l9.233-9.233C26.292,20.235,26.292,19.339,25.744,18.792z"/>
	<linearGradient id="SVGID_2_" gradientUnits="userSpaceOnUse" x1="21.333" y1="4.5741" x2="21.333" y2="35">
		<stop  offset="0" style="stop-color:#66B14E"/>
		<stop  offset="0.7667" style="stop-color:#068E5E"/>
		<stop  offset="1" style="stop-color:#008D5F"/>
	</linearGradient>
	<path style="fill:url(#SVGID_2_);" d="M25.744,18.792l-9.233-9.233v20.456l9.233-9.233C26.292,20.235,26.292,19.339,25.744,18.792z
		"/>
	<path style="fill:#01805E;" d="M14.52,30.015l-4.574-4.574v9.148c0.547,0.547,1.443,0.547,1.991,0l4.574-4.574
		C15.964,30.563,15.068,30.563,14.52,30.015z"/>
	<path style="fill:#7EBD4B;" d="M11.937,4.985l4.574,4.574V0.411c-0.548-0.547-1.443-0.547-1.991,0L9.946,4.985
		C10.494,4.437,11.39,4.437,11.937,4.985z"/>
	<linearGradient id="SVGID_3_" gradientUnits="userSpaceOnUse" x1="13.2288" y1="4.5741" x2="13.2288" y2="35">
		<stop  offset="0" style="stop-color:#1BA74A"/>
		<stop  offset="0.7714" style="stop-color:#116A37"/>
		<stop  offset="1" style="stop-color:#0F6435"/>
	</linearGradient>
	<path style="fill:url(#SVGID_3_);" d="M11.937,4.985c-0.547-0.547-1.443-0.547-1.991,0v20.457l4.574,4.574
		c0.547,0.547,1.443,0.547,1.991,0V9.559L11.937,4.985z"/>
	<linearGradient id="SVGID_4_" gradientUnits="userSpaceOnUse" x1="5.1357" y1="4.9626" x2="5.1357" y2="29.4536">
		<stop  offset="0" style="stop-color:#66B14E"/>
		<stop  offset="0.8172" style="stop-color:#16905D"/>
		<stop  offset="1" style="stop-color:#008D5F"/>
	</linearGradient>
	<path style="fill:url(#SVGID_4_);" d="M0.714,14.218c-0.547,0.547-0.547,1.443,0,1.991l9.233,9.233V4.985
		C10.494,4.437,0.714,14.218,0.714,14.218z"/>
</g>
</svg>
