<svg version="1.1" id="Layer_1" xmlns="http://www.w3.org/2000/svg" xmlns:xlink="http://www.w3.org/1999/xlink" x="0px" y="0px"
	 width="406px" height="540px" viewBox="-114.5 115.5 406 540" style="enable-background:new -114.5 115.5 406 540;"
	 xml:space="preserve">
<path style="fill:#E9F1F4;" d="M281.333,394.987L149.967,263.621V135.116c0-3.542-1.407-6.919-3.917-9.429
	c-6.38-6.403-14.917-9.921-23.994-9.921c-9.1,0-17.614,3.518-24.017,9.921l-202.291,202.292c-13.228,13.228-13.252,34.782,0,48.034
	L27.114,507.379v128.505c0,3.542,1.407,6.919,3.917,9.429c6.403,6.403,14.917,9.921,24.017,9.921s17.614-3.518,24.017-9.921
	l67.008-67.008l0,0l0,0l135.26-135.26C294.561,429.77,294.561,408.215,281.333,394.987z M116.896,144.544
	c1.829-1.829,4.011-2.111,5.16-2.111c0.328,0,0.751,0.023,1.243,0.094v94.403l-44.258-44.234c-1.759-1.759-3.706-3.237-5.746-4.55
	L116.896,144.544z M122.056,561.511c-1.126,0-3.307-0.281-5.16-2.111l-63.115-63.115V209.559c0.493-0.07,0.915-0.094,1.243-0.094
	c1.149,0,3.307,0.281,5.16,2.111l63.115,63.115v286.75C122.807,561.488,122.385,561.511,122.056,561.511z M-85.372,357.132
	c-2.791-2.791-2.791-7.505,0-10.296L27.137,234.327v235.292L-85.372,357.132z M60.184,626.432c-1.829,1.829-4.011,2.111-5.136,2.111
	c-0.328,0-0.751-0.023-1.243-0.094v-94.403l44.234,44.234c1.759,1.759,3.706,3.237,5.746,4.55L60.184,626.432z M262.476,424.141
	L149.967,536.627V301.335l112.486,112.486C265.267,416.635,265.267,421.35,262.476,424.141z"/>
</svg>
